HIERARCHY
ROOT joint_0
{
	OFFSET 0.000000 0.000000 0.000000
	CHANNELS 6 Xposition Yposition Zposition Zrotation Yrotation Xrotation 
	JOINT joint_1
	{
		OFFSET 1.363060 -1.794630 0.839290
		CHANNELS 3 Zrotation Yrotation Xrotation
		JOINT joint_2
		{
			OFFSET 2.448110 -6.726130 0.000000
			CHANNELS 3 Zrotation Yrotation Xrotation
			JOINT joint_3
			{
				OFFSET 2.562200 -7.039590 0.000000
				CHANNELS 3 Zrotation Yrotation Xrotation
				JOINT joint_4
				{
					OFFSET 0.157640 -0.433110 2.322550
					CHANNELS 3 Zrotation Yrotation Xrotation
					End Site
					{
						OFFSET 0.000000 0.000000 0.000000
					}
				}
			}
		}
	}
	JOINT joint_5
	{
		OFFSET -1.305520 -1.794630 0.839290
		CHANNELS 3 Zrotation Yrotation Xrotation
		JOINT joint_6
		{
			OFFSET -2.542530 -6.985550 0.000000
			CHANNELS 3 Zrotation Yrotation Xrotation
			JOINT joint_7
			{
				OFFSET -2.568260 -7.056230 0.000000
				CHANNELS 3 Zrotation Yrotation Xrotation
				JOINT joint_8
				{
					OFFSET -0.164730 -0.452590 2.363150
					CHANNELS 3 Zrotation Yrotation Xrotation
					End Site
					{
						OFFSET 0.000000 0.000000 0.000000
					}
				}
			}
		}
	}
	JOINT joint_9
	{
		OFFSET 0.028270 2.035590 -0.193380
		CHANNELS 3 Zrotation Yrotation Xrotation
		JOINT joint_10
		{
			OFFSET 0.056720 2.048850 -0.042750
			CHANNELS 3 Zrotation Yrotation Xrotation
			JOINT joint_11
			{
				OFFSET -0.054170 1.746240 0.172020
				CHANNELS 3 Zrotation Yrotation Xrotation
				JOINT joint_12
				{
					OFFSET 0.104070 1.761360 -0.123970
					CHANNELS 3 Zrotation Yrotation Xrotation
					End Site
					{
						OFFSET 0.000000 0.000000 0.000000
					}
				}
			}
			JOINT joint_13
			{
				OFFSET 3.362410 1.200890 -0.311210
				CHANNELS 3 Zrotation Yrotation Xrotation
				JOINT joint_14
				{
					OFFSET 4.983000 -0.000000 -0.000000
					CHANNELS 3 Zrotation Yrotation Xrotation
					JOINT joint_15
					{
						OFFSET 3.483560 -0.000000 -0.000000
						CHANNELS 3 Zrotation Yrotation Xrotation
						JOINT joint_16
						{
							OFFSET 0.000000 0.000000 0.000000
							CHANNELS 3 Zrotation Yrotation Xrotation
							End Site
							{
								OFFSET 0.000000 0.000000 0.000000
							}
						}
					}
				}
			}
			JOINT joint_17
			{
				OFFSET -3.136600 1.374050 -0.404650
				CHANNELS 3 Zrotation Yrotation Xrotation
				JOINT joint_18
				{
					OFFSET -5.241900 -0.000000 -0.000000
					CHANNELS 3 Zrotation Yrotation Xrotation
					JOINT joint_19
					{
						OFFSET -3.444170 -0.000000 -0.000000
						CHANNELS 3 Zrotation Yrotation Xrotation
						JOINT joint_20
						{
							OFFSET 0.000000 0.000000 0.000000
							CHANNELS 3 Zrotation Yrotation Xrotation
							End Site
							{
								OFFSET 0.000000 0.000000 0.000000
							}
						}
					}
				}
			}
		}
	}
}
MOTION
Frames: 15
Frame Time: 0.031667
0.383414 16.863363 -1.810240 -1.405944 0.763194 0.967095 -22.152259 -6.723319 0.776669 -0.227645 2.548077 8.165970 -1.742203 5.103862 -7.089738 0.497520 -1.763450 -6.895913 23.603208 5.437345 -5.198812 -1.930431 -5.615471 16.028117 -0.958941 0.645159 6.900278 -0.967434 2.314540 -5.466646 1.863741 -2.643915 -8.263472 -0.904193 2.308403 1.461742 1.778783 -3.534603 7.895690 3.076149 -1.562828 4.604710 -19.986142 -9.482974 7.692085 14.884823 -21.996392 -10.930451 1.298591 -4.601620 -1.567491 -7.543675 0.220911 -0.234572 15.219861 5.611256 -5.037871 -27.797857 27.977096 -24.507093 0.735637 1.440929 0.191083 6.731900 0.188003 -0.191119 
0.383318 16.859610 -1.817252 -1.379972 0.747692 0.969901 -23.101625 -5.906577 4.142502 0.733152 0.023792 5.756911 -1.158834 4.845563 -8.954222 0.612421 -1.490551 -5.817765 25.631177 5.603704 -2.547165 -3.123927 -4.328829 14.487714 -1.589784 1.423649 6.724257 -0.969675 2.841366 -7.018238 2.486989 -3.319684 -8.469845 -1.470470 2.916064 0.528134 1.828310 -2.292676 8.540193 3.824683 -2.616359 3.378432 -20.146855 -5.962017 9.284980 13.964427 -20.407046 -11.074480 2.425692 -4.799245 -3.069552 -7.500845 0.163862 -0.174001 16.647362 1.083241 -5.570253 -31.388033 30.083113 -30.268957 0.234196 1.157918 -2.105733 6.797421 0.129881 -0.131586 
0.359751 16.856756 -1.922252 -1.278687 2.231196 1.264987 -18.653969 -5.775635 6.798297 0.841904 -0.166782 4.092032 -1.939198 2.193610 -10.106772 1.058060 -1.015170 -4.031042 28.120727 5.509298 -1.974474 -2.120926 -4.333541 12.182080 -0.570727 0.635415 1.630316 -0.769282 3.062221 -7.683527 2.895636 -5.096546 -7.994106 -2.342539 1.675656 2.123180 2.154788 -4.164970 8.961751 4.697240 -3.225785 4.502986 -16.326927 -9.635521 5.368345 13.447127 -20.794258 -11.628063 2.986882 -5.881227 -3.566928 -7.434675 0.088137 -0.098298 16.877716 1.995907 -8.959777 -30.562507 30.222867 -30.741175 0.630286 1.625809 -3.978154 6.883951 0.055026 -0.056338 
0.356616 16.846096 -1.948889 -0.875224 1.924792 0.723241 -14.908567 -3.189695 5.750989 2.208600 -0.668316 3.891887 -1.037933 -1.557109 -6.302696 1.455125 0.443387 0.447703 29.762487 4.421187 0.437605 -2.141336 -3.801406 11.529478 0.278153 -1.562701 -2.355306 -0.672056 1.615706 -3.748460 1.437975 -5.150743 -7.758300 -1.769554 1.972422 2.166315 2.992731 -4.927350 10.374849 5.489931 -3.195742 4.935606 -17.450153 -6.025201 5.660418 14.632405 -20.419463 -12.354486 3.979985 -5.407950 -3.535474 -7.376174 0.006856 -0.023391 12.891480 4.176068 -16.372975 -29.270414 29.334511 -32.813021 0.450076 0.525765 -4.671874 6.972609 -0.030253 0.024396 
0.352688 16.855104 -1.909324 -1.206381 1.764283 0.913657 -11.351500 -1.785431 2.438124 1.307233 -1.177161 5.526775 -1.263803 0.527448 -4.679866 1.749798 2.205392 4.894716 31.873320 6.137652 -0.447084 -3.678136 -4.344696 8.821584 0.892061 -2.456933 -4.900994 -0.735166 0.225725 0.288121 1.799995 -1.961187 -9.575696 -1.719513 0.665729 3.040130 2.242301 -2.861480 12.442324 5.767446 -2.109709 5.250701 -19.578807 -5.452827 7.711318 14.324754 -18.382545 -13.686060 4.658702 -6.846500 -3.500700 -7.439997 0.049093 -0.071860 16.003068 4.040846 -13.442575 -30.631241 27.625359 -34.061344 -0.024406 0.372919 -2.484606 6.886039 0.012333 -0.018705 
0.353326 16.855556 -1.907733 -1.240121 1.724975 0.923689 -13.029250 -0.556591 -0.695392 2.446729 2.702296 6.307431 -2.885597 -1.838330 -5.390462 1.966023 1.765088 3.921678 32.664407 2.073924 1.917308 -2.984797 -2.219847 8.408850 2.694787 -3.972757 -7.753801 -0.671462 -0.093183 1.099750 1.363999 -2.626733 -10.230365 -2.238812 1.625851 2.441101 3.116597 -1.659572 16.079218 6.338786 -1.591409 5.666767 -22.505758 -2.620474 10.895737 15.645197 -21.231813 -14.354509 5.456130 -6.176643 -4.532816 -7.422123 -0.015280 -0.017075 21.056068 2.704397 -10.371291 -29.835758 27.023266 -34.947901 0.869639 -0.769899 -0.362838 6.933798 -0.046216 0.040299 
0.353497 16.856457 -1.906577 -1.280150 1.729442 0.936999 -13.909632 2.702622 -4.001562 2.302052 1.355074 4.658513 -2.147242 2.761762 -6.359084 1.757582 0.911088 1.706975 33.625395 3.299065 3.145842 -4.245539 -1.251422 5.475217 0.483543 -1.806276 -10.556876 -0.760034 -0.161090 1.273207 0.374782 -1.549399 -11.600564 -1.602148 2.238320 3.445548 3.839791 -0.790908 16.290427 6.843408 -1.554037 6.385742 -21.013713 0.861176 11.670247 14.644959 -19.082982 -17.205849 6.205962 -7.097173 -4.719881 -7.384064 -0.053259 0.025298 22.203992 1.264728 -7.716032 -29.142580 25.188004 -33.803568 0.669490 -1.583888 1.578053 6.955146 -0.095597 0.087687 
0.354524 16.854355 -1.908769 -1.262170 1.675628 0.897137 -13.525401 4.426848 -4.950116 2.691825 1.898841 4.483031 -2.485618 3.019306 -8.729320 1.911231 -0.103701 -1.078407 34.442166 0.447137 4.526088 -2.423077 -1.950441 2.561242 1.042221 -3.123994 -10.840934 -0.912325 -0.533269 2.297208 0.393133 -0.590291 -11.506082 -2.640275 0.412782 5.033252 4.216671 -4.937109 18.112310 7.916668 -2.511261 6.960101 -22.938910 -0.749813 11.120504 13.918691 -19.808973 -15.792336 6.162500 -7.367917 -7.313242 -7.357459 -0.056400 0.022995 22.212714 3.474992 -5.460503 -26.524164 24.575877 -32.470868 0.584320 -1.041725 3.080367 6.959612 -0.086916 0.078131 
0.355215 16.853754 -1.910480 -1.258266 1.650171 0.888190 -14.093425 5.005182 -4.778880 1.410771 1.402632 3.098825 -1.402286 6.534027 -10.278720 2.111611 -0.601847 -2.380121 34.744534 1.245848 3.573160 -1.858132 0.052050 0.586307 0.108054 -2.962079 -13.667068 -0.687255 -0.563233 2.247339 0.484881 -0.074831 -11.527176 -1.807925 0.371968 3.863200 5.602235 -5.193726 19.542331 8.152337 -2.563815 8.115861 -23.355069 -0.956681 13.463271 17.411972 -21.624013 -15.354065 6.245920 -6.219653 -7.743547 -7.324642 -0.060127 0.018909 22.099912 2.168129 -3.502503 -29.478045 26.255146 -31.185088 0.386436 -1.911384 2.215981 6.988058 -0.077755 0.066491 
0.354847 16.854204 -1.912898 -1.277922 1.673580 0.855423 -16.603929 4.808329 -3.807297 1.558070 0.530233 0.599887 -1.975511 5.378484 -13.470408 1.826271 -0.060893 -0.646962 33.166245 -0.749200 3.857137 -0.470162 1.201600 -0.510644 1.251412 -6.202326 -13.927454 -0.592508 -0.007944 0.645996 1.000457 -1.726801 -13.062455 -1.924744 1.976751 3.621037 4.763671 -1.093562 21.612527 6.969355 -1.418310 8.976766 -23.327849 1.343092 13.928161 18.255781 -22.451781 -15.513812 7.165354 -5.713262 -8.370992 -7.289400 -0.091393 0.038010 21.346563 1.563654 -1.609111 -29.076918 26.325307 -30.180160 0.499175 -1.331511 1.316349 7.035822 -0.094977 0.080796 
0.355467 16.859909 -1.895105 -1.494062 1.709578 1.028775 -17.565763 6.417350 -1.882485 0.896520 -1.227257 -0.461257 -2.799908 4.003520 -10.184375 1.548846 0.487697 0.679687 31.465627 -1.665393 0.700325 -0.798439 0.499879 1.038407 1.479945 -6.277398 -14.036400 -0.680297 1.032553 -2.141998 0.938499 -0.743315 -12.561163 -1.171359 2.468705 5.132748 5.957682 0.093429 21.481310 5.974365 -0.407495 9.087887 -22.841288 1.721631 15.236159 18.012503 -21.524763 -15.497949 6.702483 -5.062971 -8.254480 -7.296754 -0.056026 0.006632 22.802746 2.229609 0.338952 -30.095214 26.838987 -29.139846 0.096726 -3.015622 1.514039 6.992768 -0.059679 0.046424 
0.355698 16.858559 -1.896486 -1.490068 1.658553 0.979278 -19.480354 8.625708 -2.834239 1.424977 1.175599 0.206875 -2.695456 0.610738 -6.908570 1.403418 0.241161 -0.187738 31.591407 -3.718580 0.188580 -0.230863 -1.004934 1.586623 1.397557 -3.570254 -11.214750 -0.939960 1.509380 -3.338197 0.190459 -0.586802 -12.416147 -2.284237 2.379764 4.197454 4.784767 1.713876 21.508835 5.360759 0.428456 9.424040 -21.959462 2.657121 14.126178 17.507524 -21.286997 -14.718849 7.590574 -5.093330 -8.078398 -7.299135 -0.009085 -0.026738 22.317172 2.651775 -0.022361 -27.510996 26.591145 -27.103839 0.621622 -2.911706 1.411780 6.936570 -0.013245 0.005435 
0.356209 16.859009 -1.897598 -1.467705 1.612175 0.967268 -22.907338 9.274321 -1.644323 1.297937 1.140266 0.107524 -2.696083 1.823255 -3.551343 1.286977 -0.679680 -2.939361 28.091327 -7.411413 -2.053304 -0.045505 -0.041434 1.955346 2.397845 -2.752838 -11.264123 -1.276955 1.476972 -3.093431 0.089435 0.065294 -11.901501 -2.164017 0.241138 4.312486 4.592642 0.093764 20.982284 4.094047 0.574770 8.870054 -22.919301 1.934845 10.709278 17.628396 -20.470080 -14.960208 7.652653 -5.198022 -7.058810 -7.338220 0.020483 -0.057603 21.566321 2.820231 -2.113281 -25.550464 24.899486 -26.152467 -0.121820 -2.334367 2.667173 6.896479 0.006996 -0.019328 
0.356011 16.859159 -1.899114 -1.498228 1.643050 0.943425 -23.208874 11.283002 -0.092121 0.616678 0.030460 0.286025 -4.253079 6.834683 -4.245479 1.321344 -1.129134 -4.491470 26.940922 -5.686629 -3.366338 -0.202120 -3.069965 2.289543 0.362543 -1.169065 -9.906433 -1.393397 1.316923 -2.569833 0.999331 1.282878 -10.384933 -1.596123 0.362174 3.701160 3.650171 1.550998 18.698461 3.298964 0.303229 8.707749 -20.506583 1.053664 7.306351 17.496079 -19.706827 -15.275208 7.221576 -3.308415 -5.425804 -7.386713 0.074816 -0.109667 18.808059 4.325022 -4.694871 -21.585366 23.721455 -23.870427 -0.337051 -2.630009 2.931684 6.826121 0.056464 -0.068763 
0.357096 16.857958 -1.897973 -1.507732 1.614423 0.943045 -25.980594 9.722027 0.693984 0.172429 2.194080 1.209454 -4.995195 8.202630 -4.619048 1.547730 -0.025523 -1.346053 23.819623 -5.782557 -4.122043 0.670546 -2.444206 3.027841 2.207519 -2.737727 -7.359700 -1.384805 1.122387 -2.118372 1.220597 -0.041869 -10.905699 -2.436816 1.136001 2.132253 2.691162 1.696406 18.332850 2.888124 0.504489 9.767667 -19.504772 -2.663389 5.021362 17.735744 -20.980479 -15.254666 8.258198 -3.024125 -3.905295 -7.375841 0.050362 -0.089182 16.489803 6.202039 -7.114915 -21.450677 22.364685 -22.921331 -0.076714 -1.525254 2.565527 6.859508 0.037062 -0.049140 
